<?xml version="1.0"?>
<svg xmlns="http://www.w3.org/2000/svg" xmlns:xlink="http://www.w3.org/1999/xlink" version="1.1" id="Layer_1" x="0px" y="0px" viewBox="0 0 496 496" style="enable-background:new 0 0 496 496;" xml:space="preserve" width="512px" height="512px" class=""><g><polyline style="fill:#EAEAEA;" points="16,212 71.2,488 480,284 423.2,2.4 " data-original="#EAEAEA"/><rect x="16" style="fill:#3CC676;" width="408" height="216" data-original="#3CC676"/><rect x="48" y="32" style="fill:#0AA06E;" width="344" height="152" data-original="#0AA06E"/><polyline style="fill:#078457;" points="392,32 392,184 48,184 " data-original="#078457"/><path style="fill:#FFC114;" d="M216,192v-18.4c-8,0-24-4-31.2-9.6l5.6-14.4c8,4.8,19.2,9.6,31.2,9.6c15.2,0,25.6-8.8,25.6-20.8  s-8-19.2-24-25.6c-21.6-8.8-33.6-18.4-33.6-36.8c0-17.6,8.8-32,26.4-34.4V16h16v24c16,0.8,22.4,4,28.8,7.2L256,61.6  c-4.8-2.4-12.8-7.2-27.2-7.2c-16.8,0-22.4,9.6-22.4,18.4c0,11.2,8,16.8,26.4,24.8c22.4,8.8,32.8,20,32.8,39.2  c0,16.8-9.6,32.8-33.6,36.8V192H216z" data-original="#FFC114" class=""/><path style="fill:#FF8A15;" d="M246.4,104h-40.8c4.8,4,12.8,6.4,17.6,8.8c12,4.8,24,13.6,24,25.6s-10.4,20.8-25.6,20.8  c-12,0-24-4-31.2-8.8l-5.6,14.4c7.2,5.6,23.2,9.6,31.2,9.6V192h16v-19.2c24-4,33.6-18.4,33.6-37.6  C265.6,121.6,257.6,110.4,246.4,104z" data-original="#FF8A15" class=""/><rect x="72" y="280" style="fill:#66DFFF;" width="408" height="216" data-original="#66DFFF" class=""/><rect x="104" y="312" style="fill:#8989CC;" width="344" height="152" data-original="#8989CC" class=""/><polyline style="fill:#6965A8;" points="448,312 448,464 104,464 " data-original="#6965A8" class=""/><path style="fill:#FFC114;" d="M328,451.2c-6.4,4.8-17.6,8.8-32,8.8c-17.6,0-32.8-4.8-43.2-17.6c-8-8.8-13.6-19.2-15.2-35.2H224v-16  h12.8l0,0c0-3.2,0-8,0-8H224v-16h14.4c2.4-16,8.8-26.4,17.6-35.2c11.2-11.2,24.8-16.8,42.4-16.8c12.8,0,22.4,4,28.8,7.2l-4,14.4  c-5.6-3.2-14.4-5.6-24-5.6c-11.2,0-20.8,2.4-28,10.4C264,348,259.2,356,256,368h64v16h-64.8c0,0,0,4.8,0,8l0,0H320v16h-63.2  c1.6,8,5.6,20,12,26.4c8,8,18.4,11.2,30.4,11.2c11.2,0,21.6-4.8,26.4-7.2L328,451.2z" data-original="#FFC114" class=""/><path style="fill:#FF8A15;" d="M298.4,444.8c-11.2,0-22.4-2.4-30.4-10.4c-5.6-6.4-10.4-18.4-12-26.4h64v-16h-64l0,0h-0.8h-18.4l0,0  h3.2h-16v16h13.6c1.6,16,7.2,26.4,15.2,35.2c10.4,12.8,26.4,18.4,43.2,18.4c14.4,0,25.6-4.8,32-9.6l-4-13.6  C320,440.8,309.6,444.8,298.4,444.8z" data-original="#FF8A15" class=""/><polyline style="fill:#F15249;" points="311.2,216 248,279.2 184.8,216 " data-original="#F15249"/><polygon style="fill:#C93131;" points="248,216 248,278.4 248,279.2 311.2,216 " data-original="#C93131"/></g> </svg>
